<svg xmlns="http://www.w3.org/2000/svg" viewBox="0 0 623.62 623.62"><defs><style>.a{fill:none;}.a,.b,.c,.d,.e{fill-rule:evenodd;}.b{fill:#650038;}.c{fill:#b3025b;}.d{fill:#ee3780;}.e{fill:#231f20;}</style></defs><title>PLICITY Logo</title><polyline class="a" points="0 0 623.62 0 623.62 623.62 0 623.62 0 0"/><path class="b" d="M1268.74,439.64c11.8-11.33,31.39-39.86,31.75-61.49l0-5.78,0-6V107.62l0-5.9-.06-4.24c-.35-11.35-11.47-34.5-18.19-42.12-16.19-18.47-23.68-24.06-42.31-33l-.34-.1-.25,0h-.12l-.12,0-.12.06-.09.09-.12.23-.09.6-.09,1.45-.06,3,0,6V357.11l0,5.88,0,5.89c-.11,6.56-3.83,16.58-8.22,21-4.49,4.56-13.84,9.89-20.7,10.18l-6,.05-5.9,0h-201l-5.91,0-5.89.06-1.58,0-.25.06-.13.06-.1.09-.07.1-.07.24-.06,1.58,0,6v47.09l.07,5.93,0,.25.06.12.09.11.11.07.24.06,1.21,0,6,.05,5.9,0H1208l5.91,0c19-.16,42.44-10.49,54.86-22.44" transform="translate(-770.44 0.19)"/><path class="c" d="M916.54,425.71V384.52l0-5.9,0-5.9,0-5.91.08-5.55c.85-5.76,5.67-15.18,9.91-18.95,4.87-4.39,12.86-7.86,19.45-8.13l6-.05,5.9,0H1169.7l2.17,0,.25,0,.1-.07.08-.09.06-.12,0-.24.1-6,0-5.92V33.35l0-5.9,0-5.91-.06-4.62,0-.24-.05-.11-.09-.09-.09-.06-.24-.07-.84-.06-2.76-.08-3.37,0-6,0H947.24l-5.78,0-5.55.08c-13,.47-37.67,13.28-47.12,22.15-11.86,11.19-22,23.38-28,38.49l-.08.37,0,.26.06.12.09.1.1.08.24.06,1.44.06L866,78l6,0,5.89,0h188.4l5.9,0,5.92,0,5.19.08a27.34,27.34,0,0,1,17.72,8.9c9.81,11,9.25,17.49,9.25,17.49l.06.23.08.85.08,6,0,5.89V229.38l0,5.89,0,5.91a33,33,0,0,1-9.3,21.72c-7.26,7.19-15.75,9.13-25.4,9.21l-5.9,0H864.07l-5.91.05-2.9.06-.24.05-.12.06-.09.09-.07.11,0,.12,0,.48-.09,6,0,5.9,0,5.91v76.82l0,5.92.06,5.93c.33,13,9.92,33.56,18.28,43.35,13.3,15.53,25.52,24,42.2,32.88l.36.09h.25l.25,0,.11-.06.09-.1.06-.11,0-.25.07-1.68.07-4.93,0-6,0-5.89V425.71" transform="translate(-770.44 0.19)"/><polyline class="d" points="272.88 206.2 272.62 206.2 272.39 206.22 269.75 206.22 269.47 206.19 269.28 206.21 268.97 206.16 265.97 206.17 265.67 206.22 265.31 206.22 264.89 206.16 261.9 206.17 261.59 206.22 260.16 206.21 259.85 206.16 256.97 206.17 256.67 206.22 255.71 206.21 255.41 206.16 253.49 206.17 253.19 206.22 252.91 206.19 252.59 206.23 252.17 206.16 250.97 206.17 250.67 206.22 250.31 206.22 249.89 206.16 248.45 206.17 248.15 206.21 247.97 206.18 247.67 206.22 247.2 206.21 246.89 206.16 244.97 206.17 244.67 206.22 243.71 206.21 243.41 206.16 241.97 206.17 241.67 206.22 241.31 206.22 240.89 206.16 236.94 206.17 236.74 206.22 236.63 206.22 236.33 206.16 234.9 206.17 234.7 206.22 234.47 206.22 234.17 206.16 232.97 206.17 232.67 206.22 231.23 206.21 230.93 206.16 229.49 206.17 229.19 206.22 228.91 206.19 228.59 206.23 228.17 206.16 226.97 206.17 226.67 206.22 225.71 206.21 225.41 206.16 219.41 206.16 218.94 206.17 218.63 206.22 218.16 206.21 217.85 206.16 216.42 206.17 216.23 206.21 215.93 206.17 215.63 206.21 215.33 206.16 213.9 206.17 213.59 206.22 211.68 206.21 211.37 206.16 209.94 206.17 209.75 206.21 209.45 206.16 207.9 206.17 207.59 206.22 207.23 206.21 206.93 206.16 204.9 206.17 204.59 206.22 203.63 206.21 203.33 206.16 201.9 206.17 201.71 206.21 201.41 206.16 199.97 206.17 199.67 206.21 199.49 206.18 199.19 206.22 197.63 206.21 197.33 206.16 194.94 206.17 194.74 206.22 194.63 206.22 194.33 206.16 192.9 206.17 192.71 206.21 192.42 206.17 192.11 206.22 190.68 206.21 190.37 206.16 188.94 206.17 188.63 206.22 188.16 206.21 187.85 206.16 184.49 206.17 184.19 206.22 183.91 206.19 183.59 206.22 183.23 206.21 182.93 206.16 180.9 206.17 180.71 206.21 180.41 206.16 178.97 206.17 178.78 206.21 178.58 206.18 178.25 206.16 176.94 206.17 176.63 206.22 173.16 206.21 172.85 206.16 172.49 206.17 172.19 206.22 171.91 206.19 171.59 206.22 171.23 206.21 170.93 206.16 169.49 206.17 169.19 206.22 168.91 206.19 168.59 206.22 168.23 206.21 167.93 206.16 166.97 206.17 166.67 206.22 166.31 206.22 165.89 206.16 163.97 206.17 163.67 206.22 163.31 206.22 162.89 206.16 160.97 206.17 160.67 206.22 159.71 206.21 159.41 206.16 157.97 206.17 157.67 206.23 157.44 206.21 157.13 206.16 151.13 206.16 150.71 206.22 149.27 206.21 148.97 206.17 148.67 206.22 146.16 206.21 145.85 206.16 143.94 206.17 143.63 206.22 142.68 206.21 142.37 206.16 140.94 206.17 140.74 206.22 140.44 206.18 140.15 206.22 138.71 206.21 138.41 206.16 136.97 206.17 136.67 206.22 136.31 206.22 135.89 206.16 134.34 206.17 134.18 206.18 133.97 206.17 133.67 206.22 133.08 206.21 132.77 206.16 131.45 206.17 131.15 206.22 130.2 206.21 129.89 206.16 128.45 206.16 128.15 206.2 127.97 206.17 127.67 206.22 125.75 206.22 125.47 206.19 125.27 206.22 124.85 206.16 123.42 206.17 123.23 206.21 122.93 206.17 122.63 206.22 122.27 206.22 121.85 206.16 120.42 206.17 120.23 206.21 119.94 206.17 119.74 206.22 119.63 206.22 119.33 206.16 117.9 206.17 117.7 206.21 117.43 206.19 117.11 206.22 115.68 206.21 115.37 206.16 113.94 206.17 113.75 206.21 113.45 206.16 111.9 206.17 111.59 206.22 111.23 206.21 110.93 206.16 109.01 206.16 108.71 206.2 108.52 206.17 108.23 206.21 107.93 206.16 105.9 206.17 105.7 206.22 105.47 206.22 105.17 206.16 103.01 206.16 102.71 206.2 102.52 206.17 102.11 206.22 101.75 206.21 101.45 206.16 97.49 206.17 97.19 206.22 96.77 206.15 96.42 206.17 96.23 206.21 95.94 206.17 95.74 206.22 95.63 206.22 95.33 206.16 91.97 206.17 91.67 206.23 91.44 206.21 91.13 206.16 88.26 206.17 87.95 206.22 84.59 206.22 84.4 206.17 84.27 206.06 84.19 205.9 84.16 205.69 84.18 205.09 84.23 204.78 84.22 204.19 84.17 203.88 84.18 203.29 84.23 202.98 84.23 196.98 84.23 191.1 84.23 185.22 84.23 179.34 84.23 173.46 84.23 167.58 84.23 161.7 84.23 155.82 84.23 149.94 84.22 147.79 84.17 147.48 84.17 147.01 84.23 146.7 84.22 145.51 84.17 145.2 84.17 144.73 84.25 144.56 84.39 144.46 84.58 144.41 90.59 144.42 96.47 144.42 102.35 144.42 108.23 144.42 114.11 144.42 119.99 144.42 125.87 144.42 131.75 144.42 137.63 144.42 143.51 144.42 149.39 144.42 155.27 144.42 161.15 144.42 167.03 144.42 172.91 144.42 178.79 144.42 184.67 144.42 190.55 144.42 196.43 144.42 202.31 144.42 208.19 144.42 214.07 144.42 219.95 144.42 225.83 144.42 231.71 144.42 237.59 144.42 243.47 144.42 249.35 144.42 255.23 144.42 261.11 144.42 266.99 144.42 272.87 144.42 273.22 144.41 273.52 144.37 273.7 144.43 273.85 144.52 273.97 144.64 274.01 144.83 274 145.31 273.96 145.51 273.98 145.7 274.01 146.04 274.02 146.87 274.07 147.18 274.06 147.65 274.01 147.96 274.01 153.96 274.01 159.84 274.01 165.72 274.01 171.6 274.01 177.48 274.01 183.36 274.01 189.24 274.01 195.12 274.01 201 274.02 205.31 274.07 205.62 274.04 205.95 273.97 206.12 273.91 206.18 273.62 206.26 273.53 206.27 273.23 206.22 272.88 206.2"/><path class="e" d="M869,606.62c1-.24,1.71-.46,2.29-.66V573.87h14.33q17.73,0,26.26-8c5.66-5.31,8.5-12.46,8.5-21.39q0-13.11-8.3-20.81T885.75,516q-5.54,0-11.42.58a48.62,48.62,0,0,0-10,1.9,7.66,7.66,0,0,0-3.54,2,5.08,5.08,0,0,0-1.13,3.57v77.62c0,3.6,2.07,5.38,6.23,5.38a12.51,12.51,0,0,0,3.12-.35m2.13-79a63.06,63.06,0,0,1,6.74-1.06,71.24,71.24,0,0,1,7.6-.41q11.21,0,17.25,4.46t6,14q0,9.72-6.24,14.38t-17.6,4.65H871.13v-36" transform="translate(-770.44 0.19)"/><path class="e" d="M989.37,607a4.18,4.18,0,0,0,3.39-1.49,6,6,0,0,0,1.28-4,7,7,0,0,0-1.56-5H951.76V521.56q0-5.46-6.26-5.46a9.36,9.36,0,0,0-3.19.52,12,12,0,0,0-2.19.94v82.93a6.36,6.36,0,0,0,1.77,4.73,6.08,6.08,0,0,0,4.46,1.75h43" transform="translate(-770.44 0.19)"/><path class="e" d="M1020.72,606.62a19.68,19.68,0,0,0,2.15-.64V521.53c0-3.63-2-5.43-6.11-5.43a6.42,6.42,0,0,0-3.2.83,12.08,12.08,0,0,0-2.21,1.53v83.17c0,3.57,2.09,5.34,6.26,5.34a12.66,12.66,0,0,0,3.11-.35" transform="translate(-770.44 0.19)"/><path class="e" d="M1099.93,605.31a32.67,32.67,0,0,0,8.92-4.16q3.44-2.49,3.43-5.56A5.35,5.35,0,0,0,1111,592a7,7,0,0,0-2.68-2.12,35.86,35.86,0,0,1-9.15,4.84,36.78,36.78,0,0,1-12.84,2,34.82,34.82,0,0,1-12.64-2.19A25.59,25.59,0,0,1,1064,588a30.78,30.78,0,0,1-6.33-10.94,46.9,46.9,0,0,1-2.26-15.34,46.26,46.26,0,0,1,2.34-15.34,30.94,30.94,0,0,1,6.47-11.09,27.33,27.33,0,0,1,9.64-6.68,31.53,31.53,0,0,1,12-2.27c5.31,0,9.61.85,12.93,2.54a54.3,54.3,0,0,1,8.66,5.4,8.29,8.29,0,0,0,2.77-2.32,5.83,5.83,0,0,0,1.21-3.68,6.83,6.83,0,0,0-1.92-4.39,17.61,17.61,0,0,0-5.41-4,34.9,34.9,0,0,0-8.36-2.84A50.41,50.41,0,0,0,1085,516a44.76,44.76,0,0,0-16,2.87,36.8,36.8,0,0,0-13.27,8.63,41.79,41.79,0,0,0-9,14.32,61.62,61.62,0,0,0,0,39.76,40.66,40.66,0,0,0,8.86,14.17,36.65,36.65,0,0,0,13.28,8.56,47,47,0,0,0,16.6,2.85,48.18,48.18,0,0,0,14.48-1.8" transform="translate(-770.44 0.19)"/><path class="e" d="M1141.36,606.62a18.72,18.72,0,0,0,2.14-.64V521.53c0-3.63-2-5.43-6.1-5.43a6.43,6.43,0,0,0-3.21.83,12,12,0,0,0-2.2,1.53v83.17c0,3.57,2.09,5.34,6.26,5.34a12.66,12.66,0,0,0,3.11-.35" transform="translate(-770.44 0.19)"/><path class="e" d="M1197.06,606.62a15.63,15.63,0,0,0,2.21-.66V526.45h23.41a3.84,3.84,0,0,0,3.26-1.51,6.46,6.46,0,0,0,1.16-4.05,8.9,8.9,0,0,0-.43-2.78,10.41,10.41,0,0,0-.87-2h-61.45a4,4,0,0,0-3.27,1.41,6.3,6.3,0,0,0-1.13,4,9.33,9.33,0,0,0,.42,2.93,15.41,15.41,0,0,0,.85,2h26.55v75.06c0,3.65,2.08,5.46,6.24,5.46a12.79,12.79,0,0,0,3-.35" transform="translate(-770.44 0.19)"/><path class="e" d="M1273.7,606.62a18.32,18.32,0,0,0,2.21-.64V573.66q6.38-9.93,11.7-18.8t9.15-15.83c2.56-4.63,4.54-8.51,6-11.62s2.13-5.2,2.13-6.3c0-3.34-1.79-5-5.39-5a12.64,12.64,0,0,0-2.34.21,5.42,5.42,0,0,0-2.07.82q-5.67,11.16-11.43,22.3t-13.11,24.09h-.58q-2.13-3.57-5.11-9c-2-3.61-4-7.36-6.16-11.22s-4.21-7.69-6.24-11.46-3.82-7-5.34-9.8a18.73,18.73,0,0,0-3-4.47,5.71,5.71,0,0,0-4.18-1.47,5,5,0,0,0-4.12,1.91,11,11,0,0,0-2.13,3.91q2.85,5.8,6.54,12.33t7.8,13.32q4.11,6.82,8.31,13.48t8.16,12.61v28c0,3.57,2.07,5.34,6.23,5.34a12.85,12.85,0,0,0,3-.35" transform="translate(-770.44 0.19)"/></svg>
